<?xml version="1.0" standalone="no"?>
<!DOCTYPE svg PUBLIC "-//W3C//DTD SVG 20010904//EN"
 "http://www.w3.org/TR/2001/REC-SVG-20010904/DTD/svg10.dtd">
<svg version="1.0" xmlns="http://www.w3.org/2000/svg"
 width="1105.000000pt" height="609.000000pt" viewBox="0 0 1105.000000 609.000000"
 preserveAspectRatio="xMidYMid meet">

<g transform="translate(0.000000,609.000000) scale(0.100000,-0.100000)"
fill="#000000" stroke="none">
<path d="M5507 5872 c-19 -21 -21 -52 -7 -102 15 -50 64 -299 95 -475 14 -82
28 -160 30 -172 7 -31 -23 -46 -58 -28 -22 11 -33 10 -86 -9 -75 -27 -88 -39
-33 -30 39 6 42 5 42 -16 0 -20 -4 -22 -45 -18 -29 2 -46 -1 -50 -9 -2 -7 -16
-13 -31 -13 -19 0 -25 4 -20 15 5 13 2 13 -25 -1 -26 -13 -29 -17 -16 -27 8
-7 17 -19 19 -27 5 -12 -5 -15 -51 -14 -32 1 -69 -5 -86 -14 -28 -14 -29 -15
-8 -23 11 -4 24 -12 27 -17 9 -16 -3 -40 -24 -45 -21 -5 -54 28 -44 45 4 7 3
8 -4 4 -17 -10 -15 -19 8 -44 11 -12 27 -19 35 -16 8 4 22 1 30 -6 11 -9 15
-9 15 -1 0 7 4 10 9 7 5 -4 12 0 14 6 4 10 6 10 6 1 1 -7 -11 -20 -26 -28 -24
-14 -25 -16 -5 -12 14 4 22 0 22 -9 0 -8 6 -11 15 -8 8 4 15 1 15 -6 0 -6 5
-8 10 -5 16 10 12 21 -12 33 -20 11 -21 12 -3 9 12 -2 26 6 33 18 13 19 13 19
8 -3 -3 -18 -1 -22 10 -18 8 3 14 1 14 -4 0 -5 7 -7 15 -4 8 4 15 10 15 16 0
5 -4 6 -10 3 -5 -3 -10 -1 -10 4 0 17 20 13 27 -5 5 -12 7 -13 14 -3 5 8 3 17
-4 21 -8 5 -6 8 6 8 11 0 17 8 17 25 0 14 -5 25 -11 25 -8 0 -7 5 1 15 7 9 19
14 27 11 10 -4 11 -1 3 14 -5 10 -10 25 -9 32 0 7 4 2 10 -10 11 -28 34 -24
33 6 0 12 3 19 8 16 4 -3 9 -20 9 -37 2 -30 2 -30 9 8 4 22 8 34 9 27 0 -7 6
-10 11 -7 6 3 10 -3 10 -15 0 -12 5 -18 10 -15 6 3 10 -3 10 -14 0 -12 4 -21
10 -21 5 0 7 6 4 14 -4 11 0 13 15 9 11 -3 19 -9 16 -13 -3 -5 -1 -11 5 -15 6
-4 10 5 10 20 0 15 -4 24 -10 20 -6 -4 -10 6 -11 22 -1 23 -2 25 -7 8 -7 -20
-8 -20 -24 -3 -10 10 -13 20 -8 23 6 4 10 1 10 -6 0 -8 4 -8 15 1 12 10 16 8
24 -11 7 -22 9 -20 16 20 5 32 10 40 17 30 6 -10 8 -5 7 16 -2 45 0 52 11 35
8 -12 10 -12 10 5 0 15 3 17 9 7 7 -11 9 -11 14 2 9 22 28 20 20 -1 -4 -14 -1
-13 18 5 18 17 21 25 12 30 -15 9 -42 119 -73 292 -13 69 -36 192 -51 273 -26
137 -28 177 -10 177 11 0 31 -47 31 -72 0 -21 30 -184 92 -503 17 -88 32 -168
32 -177 0 -28 13 -21 25 13 16 46 14 62 -19 237 -86 449 -95 485 -114 504 -27
24 -97 24 -119 0z m67 -798 c10 -4 16 -18 16 -36 0 -25 -4 -29 -22 -26 -23 3
-34 28 -24 54 6 16 8 16 30 8z m-218 -186 c1 -31 -1 -34 -22 -30 -27 5 -33 39
-12 60 20 20 33 8 34 -30z m-59 0 c-3 -8 -6 -5 -6 6 -1 11 2 17 5 13 3 -3 4
-12 1 -19z"/>
<path d="M5834 5163 c4 -5 12 -9 17 -9 5 -1 12 -2 15 -3 4 0 -1 -12 -10 -26
-20 -31 -21 -49 0 -41 8 3 12 2 9 -4 -3 -6 -1 -10 4 -10 16 0 26 4 24 10 -3
10 37 9 43 -1 4 -6 15 -4 29 5 13 9 32 13 41 9 12 -4 15 -3 10 5 -11 18 12 52
35 52 12 0 23 -8 26 -20 3 -11 12 -20 20 -20 9 0 13 6 10 15 -5 11 -2 12 16 4
27 -12 36 -69 11 -69 -8 0 -12 -5 -9 -10 4 -6 15 -8 25 -5 11 3 29 1 41 -5 15
-8 19 -9 15 -1 -4 6 -2 11 3 11 6 0 11 -7 11 -16 0 -8 5 -12 10 -9 6 4 8 11 5
16 -4 5 3 9 14 9 12 0 21 7 21 15 0 8 -7 15 -15 15 -9 0 -18 7 -21 15 -4 8
-15 15 -25 15 -13 0 -19 7 -19 24 0 22 -5 23 -77 30 -104 8 -288 8 -279 -1z
m112 -33 c12 0 12 -36 -1 -47 -4 -5 -5 -2 -1 5 5 9 -4 12 -33 12 -22 0 -42 4
-46 9 -8 14 26 32 50 26 11 -3 25 -5 31 -5z"/>
<path d="M6225 5138 c3 -7 15 -18 28 -23 12 -6 22 -14 23 -20 0 -5 4 -18 9
-28 6 -13 10 -15 21 -6 18 15 28 -9 22 -55 -2 -19 0 -32 4 -30 4 3 8 18 8 34
0 15 6 31 13 34 10 5 10 7 0 12 -7 3 -13 17 -13 31 0 24 3 25 36 20 20 -3 45
-14 56 -24 17 -15 21 -15 28 -3 7 11 10 12 10 2 0 -9 7 -11 19 -7 11 3 23 0
27 -6 4 -7 3 -9 -4 -6 -12 8 -42 -2 -42 -14 0 -5 9 -9 20 -9 13 0 22 -9 26
-25 3 -14 10 -22 15 -19 5 3 5 13 -1 25 -9 15 -7 19 5 19 9 0 18 -7 21 -15 4
-8 16 -15 28 -15 15 0 17 -3 7 -9 -11 -7 -11 -9 0 -14 10 -4 11 -8 3 -14 -7
-5 -8 -16 -3 -28 8 -21 8 -21 14 8 2 11 6 22 10 25 8 8 -1 -44 -11 -60 -4 -7
-4 -10 1 -6 4 4 14 0 22 -10 12 -16 13 -16 7 3 -5 19 -5 19 10 1 17 -21 46
-15 46 9 0 8 5 15 11 15 5 0 7 6 3 13 -6 9 -5 9 8 0 17 -15 28 -8 28 19 0 10
4 18 10 18 5 0 7 -6 4 -13 -3 -8 6 -18 21 -25 15 -7 24 -8 20 -3 -9 15 27 30
58 24 17 -3 26 -11 25 -21 -2 -8 3 -16 10 -18 7 -1 8 0 2 3 -16 8 -1 23 18 17
43 -14 -26 20 -105 52 -98 38 -149 51 -139 36 3 -6 -1 -9 -9 -8 -20 3 -32 16
-14 16 34 1 -28 22 -172 59 -193 49 -251 59 -244 39z m389 -117 c4 -5 -3 -7
-14 -4 -23 6 -26 13 -6 13 8 0 17 -4 20 -9z m100 -26 c-4 -8 -10 -12 -15 -9
-11 6 -2 24 11 24 5 0 7 -7 4 -15z m36 5 c0 -5 -4 -10 -10 -10 -5 0 -10 5 -10
10 0 6 5 10 10 10 6 0 10 -4 10 -10z m-65 -20 c12 -20 -6 -48 -34 -52 -29 -4
-30 1 -15 50 4 14 40 16 49 2z m115 1 c0 -6 -4 -12 -8 -15 -5 -3 -9 1 -9 9 0
8 4 15 9 15 4 0 8 -4 8 -9z m-75 -21 c3 -6 -1 -7 -9 -4 -18 7 -21 14 -7 14 6
0 13 -4 16 -10z"/>
<path d="M6040 5090 c0 -5 7 -7 15 -4 8 4 15 8 15 10 0 2 -7 4 -15 4 -8 0 -15
-4 -15 -10z"/>
<path d="M6398 5073 c7 -3 16 -2 19 1 4 3 -2 6 -13 5 -11 0 -14 -3 -6 -6z"/>
<path d="M6313 5025 c0 -22 2 -30 4 -17 2 12 2 30 0 40 -3 9 -5 -1 -4 -23z"/>
<path d="M5890 5036 c5 -5 10 -19 9 -30 0 -18 -2 -18 -7 -4 -6 14 -10 15 -25
3 -16 -12 -16 -13 7 -19 17 -4 26 -14 29 -34 2 -15 5 0 6 34 1 48 -2 61 -14
61 -11 0 -12 -4 -5 -11z"/>
<path d="M6050 5002 c0 -27 4 -33 18 -30 10 2 18 13 19 28 1 18 0 20 -4 6 -5
-19 -6 -18 -19 5 l-13 24 -1 -33z"/>
<path d="M6023 5012 c-21 -13 -20 -46 2 -50 16 -2 17 -1 5 7 -12 9 -13 14 -2
31 13 22 13 23 -5 12z"/>
<path d="M6190 4985 c-7 -9 -11 -17 -9 -20 3 -2 10 5 17 15 14 24 10 26 -8 5z"/>
<path d="M5254 4974 c-18 -14 -18 -15 4 -4 12 6 22 13 22 15 0 8 -5 6 -26 -11z"/>
<path d="M6216 4965 c-13 -19 -13 -23 -2 -19 8 3 16 14 19 25 7 25 3 24 -17
-6z"/>
<path d="M6350 4980 c0 -5 5 -10 11 -10 5 0 7 5 4 10 -3 6 -8 10 -11 10 -2 0
-4 -4 -4 -10z"/>
<path d="M6555 4961 c-3 -5 -1 -12 5 -16 5 -3 10 1 10 9 0 18 -6 21 -15 7z"/>
<path d="M6820 4951 c0 -6 4 -12 8 -15 5 -3 9 1 9 9 0 8 -4 15 -9 15 -4 0 -8
-4 -8 -9z"/>
<path d="M5825 4937 c7 -17 42 -33 52 -23 4 3 0 6 -7 6 -7 0 -22 8 -32 17 -17
15 -18 15 -13 0z"/>
<path d="M5600 4920 c0 -11 5 -20 10 -20 6 0 10 9 10 20 0 11 -4 20 -10 20 -5
0 -10 -9 -10 -20z"/>
<path d="M6932 4932 c1 -4 -4 -18 -11 -31 -8 -14 -9 -21 -2 -17 15 10 14 -7
-1 -22 -8 -8 -8 -12 -1 -12 14 0 27 29 24 53 -3 21 12 22 42 3 12 -7 36 -16
52 -20 l30 -6 -28 16 c-38 21 -107 45 -105 36z"/>
<path d="M5440 4914 c0 -8 5 -12 10 -9 6 3 10 10 10 16 0 5 -4 9 -10 9 -5 0
-10 -7 -10 -16z"/>
<path d="M6450 4914 c0 -8 5 -12 10 -9 6 4 8 11 5 16 -9 14 -15 11 -15 -7z"/>
<path d="M5401 4915 c1 -19 18 -51 18 -35 0 8 -4 22 -9 30 -5 8 -9 11 -9 5z"/>
<path d="M5495 4910 c3 -5 10 -10 16 -10 5 0 9 5 9 10 0 6 -7 10 -16 10 -8 0
-12 -4 -9 -10z"/>
<path d="M6710 4909 c0 -5 5 -7 10 -4 6 3 10 8 10 11 0 2 -4 4 -10 4 -5 0 -10
-5 -10 -11z"/>
<path d="M6300 4896 c0 -8 4 -17 9 -20 5 -4 7 3 4 14 -6 23 -13 26 -13 6z"/>
<path d="M5600 4874 c0 -8 5 -12 10 -9 6 4 8 11 5 16 -9 14 -15 11 -15 -7z"/>
<path d="M7097 4855 c3 -9 8 -13 11 -11 3 3 10 2 16 -4 7 -5 18 -5 26 0 11 7
8 11 -13 19 -38 15 -47 14 -40 -4z"/>
<path d="M6631 4844 c0 -11 3 -14 6 -6 3 7 2 16 -1 19 -3 4 -6 -2 -5 -13z"/>
<path d="M6470 4846 c0 -2 7 -9 15 -16 13 -11 14 -10 9 4 -5 14 -24 23 -24 12z"/>
<path d="M5577 4821 c-4 -17 -1 -18 24 -11 27 8 29 7 29 -21 0 -17 4 -28 10
-24 5 3 6 13 3 22 -5 12 -3 14 8 8 12 -7 12 -6 1 7 -10 13 -10 17 0 21 7 3 -5
4 -27 1 -29 -4 -36 -2 -25 5 13 9 13 11 -1 11 -9 0 -19 -9 -22 -19z"/>
<path d="M7176 4831 c11 -11 84 -42 84 -36 0 6 -76 45 -87 45 -4 0 -3 -4 3 -9z"/>
<path d="M6485 4794 c9 -9 19 -13 23 -10 3 4 0 11 -8 16 -24 15 -33 11 -15 -6z"/>
<path d="M5175 4790 c3 -5 8 -10 11 -10 2 0 4 5 4 10 0 6 -5 10 -11 10 -5 0
-7 -4 -4 -10z"/>
<path d="M6950 4791 c0 -10 19 -25 25 -20 1 2 -3 10 -11 17 -8 7 -14 8 -14 3z"/>
<path d="M5363 4763 c-14 -29 -8 -47 7 -23 9 13 14 50 8 50 -2 0 -9 -12 -15
-27z"/>
<path d="M5397 4764 c-2 -15 -1 -38 3 -53 7 -21 8 -16 9 27 1 56 -4 67 -12 26z"/>
<path d="M5561 4778 c-1 -10 -4 -17 -8 -17 -20 3 -33 -2 -33 -13 0 -9 3 -9 12
0 9 9 15 9 27 -2 10 -8 25 -10 41 -5 24 7 24 7 2 8 -14 1 -26 10 -32 24 -7 17
-9 18 -9 5z"/>
<path d="M7270 4786 c0 -2 7 -7 16 -10 8 -3 12 -2 9 4 -6 10 -25 14 -25 6z"/>
<path d="M7333 4746 c15 -14 23 -26 17 -26 -6 0 -4 -7 5 -17 11 -10 19 -12 23
-6 4 5 13 12 21 14 7 3 -11 17 -40 33 l-54 28 28 -26z"/>
<path d="M5290 4750 c-8 -5 -12 -11 -10 -14 3 -2 14 2 24 10 22 15 10 19 -14
4z"/>
<path d="M6436 4725 c2 -34 -16 -49 -31 -25 -4 6 -15 2 -27 -10 -12 -11 -24
-20 -28 -20 -3 0 -6 -10 -7 -22 -2 -21 0 -21 13 5 14 26 33 34 48 20 4 -5 12
-9 17 -9 5 -1 13 -2 19 -3 5 0 7 -7 4 -15 -4 -11 0 -13 15 -9 12 3 21 13 22
22 0 11 3 9 9 -7 9 -22 10 -22 28 -5 20 19 19 41 -1 40 -51 -1 -57 3 -57 38 0
23 -5 35 -14 35 -9 0 -12 -11 -10 -35z"/>
<path d="M4909 4723 l-24 -28 28 24 c25 23 32 31 24 31 -2 0 -14 -12 -28 -27z"/>
<path d="M5240 4735 c-7 -8 -19 -15 -28 -15 -8 0 -24 -8 -35 -17 -19 -17 -19
-17 -12 7 l7 25 -17 -23 c-10 -13 -15 -32 -12 -45 6 -22 6 -22 -9 -2 -15 19
-15 19 -9 -10 4 -16 8 -36 11 -43 2 -7 -1 -10 -6 -7 -6 3 -10 -1 -10 -9 0 -9
-5 -16 -11 -16 -5 0 -7 6 -3 13 5 7 0 6 -11 -3 -10 -8 -16 -10 -12 -4 11 19
-53 11 -68 -9 -7 -9 -17 -17 -23 -17 -6 0 -9 -6 -6 -14 3 -8 13 -12 26 -8 17
4 20 2 15 -12 -5 -13 0 -18 23 -23 18 -3 30 -12 31 -22 0 -12 2 -11 9 4 6 14
9 16 10 5 2 -8 2 -18 1 -22 0 -5 4 -8 10 -8 11 0 9 -16 -6 -53 -6 -14 -3 -16
11 -11 20 7 44 32 44 47 0 4 -4 6 -9 3 -5 -3 -11 1 -14 8 -4 10 8 20 38 33 24
9 41 21 39 25 -3 5 1 8 8 8 9 1 8 3 -3 10 -18 10 -14 80 5 81 6 0 1 4 -11 9
-24 10 -39 50 -29 76 11 28 50 13 62 -25 16 -50 25 -24 15 43 0 4 -9 5 -18 2
-15 -5 -15 -4 1 9 11 8 17 17 14 20 -3 3 -11 -1 -18 -10z m-158 -165 c14 0 16
-4 8 -24 -5 -13 -7 -26 -5 -28 3 -2 -6 -4 -19 -4 -20 0 -22 3 -12 18 8 14 8
23 -3 41 -10 17 -11 19 0 10 7 -7 21 -13 31 -13z m70 -27 c-10 -4 -10 -8 -1
-19 14 -17 4 -47 -13 -42 -21 7 -26 51 -10 71 12 13 18 15 26 6 8 -8 7 -13 -2
-16z"/>
<path d="M6290 4740 c0 -5 5 -10 11 -10 5 0 7 5 4 10 -3 6 -8 10 -11 10 -2 0
-4 -4 -4 -10z"/>
<path d="M6370 4739 c0 -5 5 -7 10 -4 6 3 10 8 10 11 0 2 -4 4 -10 4 -5 0 -10
-5 -10 -11z"/>
<path d="M6581 4734 c0 -11 3 -14 6 -6 3 7 2 16 -1 19 -3 4 -6 -2 -5 -13z"/>
<path d="M5358 4690 c-7 -16 -16 -30 -20 -30 -4 0 -5 -7 -1 -16 5 -13 7 -13
14 -2 8 11 10 11 18 -1 6 -9 11 -10 15 -2 4 6 2 11 -3 11 -6 0 -11 9 -11 21 0
11 5 17 10 14 6 -3 10 1 10 9 0 28 -18 26 -32 -4z"/>
<path d="M5938 4713 c7 -3 16 -2 19 1 4 3 -2 6 -13 5 -11 0 -14 -3 -6 -6z"/>
<path d="M6278 4712 c11 -7 11 -10 -2 -15 -9 -4 -15 -14 -15 -24 1 -17 2 -17
6 0 3 10 11 16 18 13 8 -3 12 2 11 12 -2 9 -9 18 -17 20 -11 3 -12 2 -1 -6z"/>
<path d="M6570 4695 c0 -8 4 -15 10 -15 5 0 7 7 4 15 -4 8 -8 15 -10 15 -2 0
-4 -7 -4 -15z"/>
<path d="M6740 4691 c-14 -28 -12 -43 10 -71 11 -14 20 -20 19 -15 -1 6 1 18
5 28 10 22 0 50 -15 41 -8 -4 -9 0 -4 15 8 26 -1 27 -15 2z"/>
<path d="M7420 4703 c0 -3 8 -11 17 -18 15 -11 15 -15 4 -29 -12 -14 -10 -15
17 -10 28 6 32 4 40 -27 5 -19 14 -33 20 -32 7 2 15 -9 18 -23 5 -19 9 -22 15
-12 7 10 9 10 9 -2 0 -10 7 -7 20 10 11 14 19 18 17 10 -2 -8 -2 -12 0 -7 7
11 33 9 33 -3 0 -5 6 -10 14 -10 8 0 18 -5 22 -12 5 -8 2 -9 -12 -4 -10 4 -15
4 -11 0 4 -4 -1 -12 -10 -19 -11 -8 -13 -16 -6 -29 8 -15 11 -15 28 4 26 28
43 25 53 -11 l8 -32 11 26 c11 23 9 28 -20 50 -53 39 -287 187 -287 180z m234
-198 c-7 -16 -24 -21 -24 -6 0 8 7 13 27 20 1 1 0 -6 -3 -14z"/>
<path d="M5437 4693 c-4 -3 -7 -11 -7 -17 0 -6 5 -5 12 2 6 6 9 14 7 17 -3 3
-9 2 -12 -2z"/>
<path d="M5960 4675 c0 -30 -26 -34 -46 -7 -13 16 -13 16 -14 0 0 -10 -4 -18
-10 -18 -5 0 -10 -8 -10 -17 1 -17 1 -17 10 -1 10 16 50 14 50 -3 0 -5 9 0 20
11 21 21 27 60 10 60 -5 0 -10 -11 -10 -25z"/>
<path d="M6111 4695 c1 -19 18 -51 18 -35 0 8 -4 22 -9 30 -5 8 -9 11 -9 5z"/>
<path d="M4795 4623 c-56 -51 -56 -53 -9 -15 46 38 82 73 73 72 -2 -1 -31 -26
-64 -57z"/>
<path d="M5586 4672 c-3 -6 1 -13 10 -16 23 -9 28 -2 10 13 -8 7 -17 8 -20 3z"/>
<path d="M6422 4640 c0 -14 2 -19 5 -12 2 6 2 18 0 25 -3 6 -5 1 -5 -13z"/>
<path d="M6561 4643 c12 -15 12 -16 -5 -10 -14 6 -17 4 -12 -9 4 -12 1 -14
-13 -9 -22 7 -49 -29 -31 -40 9 -6 14 1 11 18 -2 12 24 8 38 -5 10 -11 12 -9
9 7 -2 15 2 19 17 18 11 -1 14 0 7 3 -10 5 -10 9 0 22 10 12 10 14 1 8 -7 -4
-13 -2 -13 3 0 6 -5 11 -11 11 -8 0 -7 -6 2 -17z"/>
<path d="M6688 4653 c6 -2 18 -2 25 0 6 3 1 5 -13 5 -14 0 -19 -2 -12 -5z"/>
<path d="M7250 4651 c0 -10 19 -25 25 -20 1 2 -3 10 -11 17 -8 7 -14 8 -14 3z"/>
<path d="M6606 4641 c-5 -7 -1 -20 8 -30 9 -10 16 -25 16 -35 0 -14 2 -14 14
-4 11 11 11 14 0 23 -7 5 -17 21 -22 34 -6 17 -11 21 -16 12z"/>
<path d="M6680 4631 c0 -6 4 -13 10 -16 6 -3 7 1 4 9 -7 18 -14 21 -14 7z"/>
<path d="M5264 4615 c-4 -8 -10 -13 -14 -10 -4 3 -13 -2 -20 -10 -9 -11 -9
-18 3 -30 9 -8 14 -24 12 -35 -3 -16 2 -20 21 -20 14 0 33 -7 42 -16 11 -12
17 -13 20 -5 3 9 8 9 17 1 9 -8 14 -6 19 7 4 10 3 19 -3 21 -12 4 -3 32 10 32
5 0 9 -8 10 -17 0 -12 2 -14 6 -5 3 7 -4 24 -16 36 -12 12 -18 26 -14 31 5 4
3 5 -4 1 -7 -3 -14 2 -17 12 -4 10 -13 19 -21 19 -8 0 -12 -4 -9 -9 3 -4 -4
-8 -16 -8 -12 0 -18 5 -15 10 3 6 4 10 0 10 -3 0 -8 -7 -11 -15z m76 -75 c0
-13 -7 -20 -20 -20 -19 0 -27 20 -13 33 13 14 33 6 33 -13z"/>
<path d="M5556 4603 c-6 -14 -5 -15 5 -6 7 7 10 15 7 18 -3 3 -9 -2 -12 -12z"/>
<path d="M6091 4603 c3 -18 -1 -36 -8 -30 -3 4 -12 -1 -19 -11 -9 -11 -13 -13
-14 -4 0 8 -13 3 -35 -14 -22 -17 -35 -34 -34 -48 1 -20 2 -20 6 -1 7 28 15
35 48 41 27 5 27 4 21 -30 -4 -20 -2 -37 4 -41 6 -4 9 -1 8 7 -2 7 3 12 10 10
8 -1 16 7 19 18 3 11 12 20 19 20 8 0 14 7 14 15 0 8 4 15 10 15 5 0 7 -7 4
-15 -4 -8 -1 -15 5 -15 6 0 11 5 11 11 0 5 5 7 11 3 7 -4 7 1 -1 16 -9 17 -18
21 -42 18 -25 -4 -29 -2 -25 14 3 10 1 21 -4 24 -5 3 -9 2 -8 -3z"/>
<path d="M6220 4596 c0 -9 5 -16 10 -16 6 0 10 4 10 9 0 6 -4 13 -10 16 -5 3
-10 -1 -10 -9z"/>
<path d="M5401 4584 c0 -11 3 -14 6 -6 3 7 2 16 -1 19 -3 4 -6 -2 -5 -13z"/>
<path d="M5630 4590 c-9 -6 -10 -10 -3 -10 6 0 15 5 18 10 8 12 4 12 -15 0z"/>
<path d="M6135 4590 c-3 -5 -1 -10 4 -10 6 0 11 5 11 10 0 6 -2 10 -4 10 -3 0
-8 -4 -11 -10z"/>
<path d="M6272 4589 c3 -8 -1 -27 -9 -44 l-15 -30 26 29 c14 16 26 25 26 20 0
-6 -5 -15 -12 -22 -9 -9 -9 -12 0 -12 24 0 25 31 2 52 -13 12 -21 15 -18 7z"/>
<path d="M6673 4578 c-2 -16 1 -18 10 -9 7 7 8 14 1 21 -6 6 -10 2 -11 -12z"/>
<path d="M6320 4586 c0 -2 7 -7 16 -10 8 -3 12 -2 9 4 -6 10 -25 14 -25 6z"/>
<path d="M4904 4569 c-4 -7 -3 -9 4 -5 5 3 12 0 15 -6 2 -7 7 -10 11 -7 4 3 0
12 -8 18 -11 9 -16 9 -22 0z"/>
<path d="M5433 4563 c-7 -2 -13 -14 -12 -26 0 -15 2 -17 6 -7 3 8 12 21 21 28
16 12 8 15 -15 5z"/>
<path d="M5502 4563 c-7 -2 -17 -14 -23 -26 -9 -19 -8 -20 3 -7 8 8 20 21 28
28 15 13 13 14 -8 5z"/>
<path d="M4956 4552 c-2 -4 -1 -14 5 -22 5 -8 9 -27 9 -42 0 -22 -4 -25 -22
-22 -22 4 -22 4 -2 -5 21 -9 41 -41 25 -41 -4 0 -8 -6 -8 -14 0 -8 8 -13 18
-11 12 3 16 -1 12 -11 -3 -8 -9 -14 -14 -14 -5 0 -9 -5 -9 -11 0 -5 5 -7 10
-4 6 3 10 1 10 -5 0 -6 14 3 30 20 30 31 38 50 21 50 -6 0 -13 -5 -17 -12 -5
-7 -10 -3 -16 12 -5 12 -6 25 -3 28 3 3 5 0 5 -7 0 -7 4 -10 10 -6 14 8 0 37
-16 31 -9 -3 -11 0 -7 11 4 11 2 14 -5 9 -8 -5 -12 1 -12 18 0 14 -5 28 -10
31 -6 4 -8 11 -5 16 4 5 4 9 1 9 -3 0 -7 -4 -10 -8z"/>
<path d="M6455 4548 c-4 -10 -5 -23 -3 -30 3 -7 -4 -21 -15 -31 -11 -9 -18
-19 -16 -22 3 -2 17 6 32 19 21 18 24 25 14 35 -10 11 -8 12 11 6 14 -4 22 -2
22 5 0 6 -4 9 -9 5 -6 -3 -14 3 -20 12 -9 17 -10 17 -16 1z"/>
<path d="M5513 4544 c-7 -3 -9 -12 -6 -20 3 -8 0 -21 -7 -29 -9 -11 -9 -19 -2
-28 8 -10 5 -27 -13 -65 -13 -29 -25 -52 -27 -52 -2 0 -3 11 -3 25 0 14 4 25
9 25 5 0 3 7 -4 15 -7 8 -10 21 -7 30 4 8 2 17 -3 20 -6 4 -15 -6 -21 -22 -6
-15 -17 -36 -26 -45 -8 -9 -12 -21 -9 -26 9 -14 -4 -42 -19 -42 -19 0 -36 25
-29 44 3 9 14 16 24 16 14 0 17 5 12 22 -3 12 -7 17 -10 10 -2 -7 -8 -10 -13
-6 -5 3 -9 -1 -9 -8 -1 -7 -9 -3 -20 11 -11 13 -20 18 -20 12 0 -6 -8 -8 -17
-4 -15 5 -16 3 -5 -8 13 -14 16 -47 6 -73 -7 -18 -24 -22 -24 -5 0 6 -7 17
-15 25 -8 9 -15 12 -15 8 0 -3 -6 -1 -13 5 -20 16 -27 4 -28 -48 0 -25 -3 -41
-5 -34 -3 7 -11 10 -18 7 -10 -4 -12 6 -9 37 4 43 -13 71 -29 46 -12 -19 -9
-27 7 -21 15 6 21 -16 8 -30 -4 -4 -6 -22 -5 -41 4 -42 -15 -55 -38 -27 -10
12 -19 19 -22 17 -2 -2 -5 6 -5 18 -2 17 0 19 7 7 8 -13 10 -12 10 3 0 9 7 17
15 17 8 0 15 5 15 10 0 7 -6 7 -18 1 -21 -11 -47 -9 -59 4 -4 4 -2 5 5 1 6 -4
12 -4 13 1 7 69 5 105 -7 110 -11 4 -12 9 -4 18 8 10 5 13 -15 11 -14 0 -25
-1 -25 -2 0 -9 39 -42 44 -37 12 12 5 -22 -9 -47 -8 -14 -14 -37 -15 -52 0
-19 -6 -28 -17 -30 -10 0 -23 -2 -30 -2 -17 -2 -53 -42 -45 -52 4 -4 1 -4 -6
0 -8 5 -10 12 -4 19 11 16 10 37 -3 37 -28 0 -43 -13 -41 -34 0 -13 4 -22 9
-19 4 2 7 -6 7 -19 0 -18 -2 -20 -10 -8 -8 13 -10 12 -10 -2 0 -27 -30 -22
-31 5 -1 16 -3 17 -6 5 -2 -10 -10 -15 -19 -11 -8 3 -14 0 -14 -6 0 -6 4 -11
10 -11 5 0 -5 -15 -23 -34 -21 -22 -35 -30 -39 -22 -4 6 -2 16 6 21 7 6 11 16
8 24 -3 9 2 11 19 7 13 -3 18 -3 11 0 -6 3 -10 10 -7 15 4 5 -1 6 -10 3 -12
-5 -16 -2 -13 9 2 9 0 16 -4 16 -28 3 -38 0 -33 -10 4 -6 -2 -5 -14 3 -12 7
-21 20 -22 28 0 8 -5 4 -10 -10 -8 -20 -12 -22 -19 -10 -9 13 -10 13 -11 0 -1
-8 -1 -18 0 -22 0 -5 -4 -8 -9 -8 -6 0 -10 5 -10 11 0 15 -30 -17 -31 -33 0
-7 -4 -4 -9 7 -8 17 -9 15 -8 -10 1 -52 -1 -62 -11 -46 -7 11 -15 10 -40 -8
-17 -13 -31 -19 -30 -14 4 16 -13 43 -25 37 -6 -3 -2 2 9 11 18 14 21 14 31 0
6 -8 14 -12 18 -8 3 3 -2 15 -11 26 -10 11 -12 17 -5 13 7 -5 12 -1 12 10 0 9
8 23 18 31 16 14 16 14 -2 9 -14 -5 -17 -2 -12 10 3 8 6 19 6 22 0 4 5 0 11
-8 8 -12 9 -10 4 7 -3 12 -1 24 5 28 5 3 11 16 11 28 1 14 4 9 9 -13 l7 -35 3
30 2 30 8 -30 c6 -24 8 -25 9 -8 1 16 6 21 16 17 11 -5 15 1 15 19 0 14 -5 29
-11 32 -6 4 -8 13 -5 20 5 15 -20 29 -29 15 -3 -4 0 -10 7 -12 9 -3 9 -6 0
-12 -7 -4 -12 -2 -12 4 0 6 -6 8 -12 4 -7 -4 11 18 41 49 30 31 59 53 65 50 6
-3 5 0 -2 8 -10 11 -35 -9 -143 -116 -116 -116 -274 -292 -382 -427 -37 -47
-48 -70 -24 -49 14 11 27 5 27 -11 0 -5 -4 -7 -9 -4 -5 4 -7 -4 -3 -16 4 -17
2 -20 -11 -15 -10 4 -17 2 -17 -4 0 -6 -4 -8 -9 -4 -5 3 -12 1 -16 -5 -3 -5 1
-10 9 -10 12 0 15 -9 13 -32 -2 -28 -6 -33 -26 -30 -15 2 -21 0 -17 -7 4 -6 0
-11 -8 -11 -9 0 -16 -4 -16 -9 0 -4 -9 -20 -21 -35 -17 -21 -24 -24 -35 -15
-16 13 -19 -1 -4 -19 6 -6 7 -10 4 -7 -4 3 -14 -1 -22 -8 -13 -10 -15 -9 -9 6
4 11 3 16 -3 12 -20 -12 -9 8 36 66 28 36 52 58 60 55 9 -3 11 0 7 11 -5 12
-3 14 7 8 9 -6 11 -4 6 4 -5 7 0 22 11 34 18 21 18 21 -1 7 -24 -19 -128 -146
-155 -190 -13 -22 -21 -52 -21 -81 0 -44 1 -46 25 -41 18 3 25 0 25 -12 0 -9
11 -21 25 -26 14 -5 25 -14 25 -20 0 -14 -63 -13 -78 2 -18 18 -15 2 14 -84
20 -61 34 -84 62 -108 20 -16 43 -30 52 -30 13 0 13 -1 0 -11 -20 -14 59 -3
122 17 73 24 76 32 35 116 -19 40 -41 92 -48 116 -7 23 -15 42 -19 42 -4 0
-10 14 -12 30 -5 36 18 63 33 39 5 -8 9 -18 10 -24 4 -39 7 -57 19 -100 28
-100 139 -172 285 -183 51 -4 65 -7 50 -14 -14 -6 -9 -7 18 -4 57 7 124 43
154 82 37 50 38 104 2 176 -16 32 -29 60 -29 62 0 3 35 -30 78 -73 63 -64 95
-87 174 -126 112 -55 179 -67 240 -41 46 20 42 34 -21 80 -53 39 -162 150
-180 184 -19 35 5 26 35 -14 47 -62 176 -164 252 -200 76 -36 149 -52 179 -39
10 5 59 10 108 11 98 2 304 48 349 78 21 13 26 25 26 56 0 21 5 51 11 67 20
54 -53 414 -101 496 -21 35 -24 37 -75 37 -40 0 -54 4 -59 16 -8 21 -9 21 41
28 31 4 42 2 40 -7 -1 -7 11 -13 28 -15 36 -4 55 -26 55 -63 0 -15 5 -31 10
-34 6 -4 8 -10 5 -15 -3 -5 0 -12 6 -16 8 -4 9 -3 5 4 -8 13 -7 14 48 16 22 1
41 7 44 14 2 7 15 12 28 12 14 0 37 6 52 14 15 7 38 16 52 20 14 3 6 -3 -18
-14 -23 -10 -45 -26 -48 -35 -4 -9 12 -107 35 -219 22 -111 41 -214 41 -229 0
-31 9 -33 53 -10 30 15 31 15 18 0 -23 -29 10 -20 44 11 63 58 73 77 73 149 0
39 -5 78 -14 94 -17 33 -18 49 -4 49 6 0 19 -20 30 -45 11 -25 32 -57 47 -72
16 -14 21 -23 13 -18 -9 5 -12 5 -7 -1 5 -5 12 -9 15 -9 4 0 25 -11 47 -25 36
-23 49 -25 145 -24 218 3 399 89 482 229 28 48 30 28 1 -27 -7 -16 -11 -28 -8
-28 4 0 15 19 25 43 16 38 18 56 10 180 -4 76 -9 139 -11 140 -2 1 -17 10 -34
20 -16 10 -49 27 -72 38 l-43 20 -62 -27 c-156 -65 -637 -199 -654 -181 -3 2
-1 12 2 21 5 14 14 16 38 12 32 -6 262 46 279 63 5 5 -3 6 -17 4 -32 -7 -34
10 -3 32 20 14 23 14 30 -4 8 -16 14 -17 49 -10 21 5 43 7 47 4 5 -2 23 0 40
6 38 13 58 44 41 64 -8 10 -8 19 -1 33 12 23 81 38 93 19 5 -8 8 -5 8 8 1 18
1 19 11 3 5 -10 18 -18 28 -18 10 0 21 -3 25 -7 4 -5 18 -8 32 -8 22 -1 22 0
7 17 -15 17 -15 20 2 38 11 13 25 18 37 14 10 -3 18 -2 18 3 0 13 -20 39 -20
27 0 -6 -10 -15 -22 -21 -18 -8 -26 -5 -45 15 -13 14 -23 32 -24 41 0 10 -4 7
-10 -8 -8 -20 -15 -23 -49 -19 -28 2 -40 0 -40 -9 0 -7 -6 -13 -14 -13 -8 0
-16 -3 -19 -7 -2 -5 -3 -3 -1 3 1 6 -1 16 -6 23 -5 10 -13 7 -29 -10 -20 -21
-21 -22 -22 -3 0 17 -1 17 -9 -2 -11 -28 -26 -37 -50 -29 -24 8 -17 31 19 63
18 16 20 20 6 14 -14 -8 -22 -6 -32 6 -12 15 -12 15 -6 -3 6 -19 6 -19 -14 -2
-24 21 -43 22 -43 2 0 -8 -9 -15 -20 -15 -12 0 -20 7 -20 17 0 16 -1 16 -16 1
-20 -19 -10 -58 14 -58 13 0 14 2 4 9 -11 7 -11 9 1 14 8 3 19 1 25 -5 8 -8
16 -7 27 2 13 11 15 10 10 -2 -3 -8 1 -21 10 -28 8 -7 15 -20 15 -29 0 -14 2
-14 10 -1 5 8 10 10 10 4 0 -14 -21 -34 -36 -34 -7 0 -15 12 -17 28 l-4 27 -2
-28 c0 -16 -5 -25 -11 -22 -5 3 -10 0 -10 -7 0 -7 -10 2 -21 20 -24 37 -61 45
-52 11 4 -14 8 -17 13 -9 9 15 30 4 30 -15 0 -9 -6 -12 -16 -8 -11 4 -14 0
-11 -18 2 -13 2 -18 0 -11 -3 7 -9 9 -14 6 -6 -3 -9 2 -7 11 2 10 -1 20 -7 21
-5 2 -10 -9 -11 -26 -1 -16 3 -27 7 -24 5 3 9 0 9 -5 0 -6 -9 -11 -21 -11 -18
0 -20 -4 -14 -37 4 -25 1 -44 -7 -55 -12 -16 -15 -15 -42 7 -26 20 -28 27 -19
47 13 29 14 44 1 40 -5 -1 -7 2 -3 7 3 6 13 8 23 5 16 -5 16 -5 0 6 -10 6 -18
18 -18 27 0 21 -11 11 -14 -14 -3 -22 -27 -24 -34 -3 -4 12 -2 13 9 3 12 -9
14 -4 12 30 -1 23 -5 53 -10 66 -8 20 -11 21 -16 8 -4 -10 -2 -17 3 -17 6 0
10 -4 10 -10 0 -5 -7 -10 -15 -10 -11 0 -14 -7 -9 -25 4 -16 2 -25 -6 -25 -6
0 -8 -5 -5 -10 3 -6 -1 -17 -9 -26 -11 -10 -13 -21 -7 -31 8 -15 2 -57 -14
-96 -11 -26 -49 -18 -53 11 -2 13 2 30 8 38 22 25 -16 17 -46 -11 -21 -19 -30
-22 -45 -14 -16 8 -19 6 -19 -15 0 -34 -36 -54 -57 -33 -19 18 -8 57 15 58 12
0 13 2 4 6 -10 4 -9 10 4 27 10 11 4 8 -13 -9 -17 -16 -28 -34 -25 -39 3 -5
-3 -6 -12 -3 -10 4 -26 7 -35 7 -10 0 -18 7 -18 15 0 8 4 15 9 15 5 0 6 5 3
11 -4 6 -13 8 -21 5 -8 -3 -14 -1 -14 4 0 6 -11 10 -25 10 -26 0 -29 8 -27 60
1 14 -1 19 -4 13 -3 -7 -10 -13 -14 -13 -5 0 -2 16 6 36 8 20 12 39 9 42 -3 3
-8 -4 -12 -16 -3 -12 -10 -22 -15 -22 -6 0 -7 -7 -4 -16 4 -10 1 -14 -6 -12
-7 3 -13 13 -13 24 0 22 -45 30 -57 10 -5 -7 -8 -5 -8 7 0 10 -8 17 -19 17
-28 0 -47 26 -31 45 19 23 55 19 67 -7 10 -21 12 -21 18 -5 4 9 4 28 1 41 -5
20 -11 24 -32 20 -15 -3 -23 -1 -20 5 4 5 -7 3 -24 -5 -17 -9 -28 -20 -24 -25
8 -13 -6 -50 -17 -44 -5 4 -9 0 -9 -7 0 -10 -3 -9 -10 2 -7 12 -11 10 -19 -10
-5 -14 -10 -18 -11 -10 -1 10 -4 9 -10 -5 -6 -15 -9 -16 -9 -4 -1 9 -10 24
-21 34 -23 21 -25 15 -8 -18 23 -45 28 -57 28 -67 0 -21 -19 1 -25 29 -5 25
-31 49 -41 38 -2 -2 3 -22 12 -44 14 -36 15 -46 3 -72 -8 -17 -19 -31 -26 -31
-6 0 -15 -9 -18 -20 -8 -24 -47 -27 -65 -5 -10 12 -10 22 -2 39 12 26 62 41
74 23 5 -7 7 5 5 25 -1 21 -5 38 -9 38 -5 0 -8 13 -8 29 0 16 -6 32 -12 35
-10 5 -10 7 0 12 17 8 15 24 -4 24 -13 0 -14 3 -4 15 6 8 8 20 4 26 -4 8 -3 9
4 5 7 -4 12 -1 12 8 0 16 -6 18 -27 10z m-75 -139 c-1 -13 -6 -21 -10 -17 -5
5 -6 16 -2 25 9 24 14 21 12 -8z m92 -39 c0 -6 -5 -4 -11 4 -8 11 -12 12 -16
3 -2 -7 -9 -13 -14 -13 -5 0 -4 9 3 19 9 15 15 17 25 9 7 -6 13 -16 13 -22z
m-460 4 c0 -5 -4 -10 -10 -10 -5 0 -10 5 -10 10 0 6 5 10 10 10 6 0 10 -4 10
-10z m670 -13 c0 -29 -18 -47 -46 -47 -18 0 -21 4 -17 23 8 31 23 47 44 47 13
0 19 -7 19 -23z m880 -5 c0 -27 -21 -49 -52 -54 -25 -5 -27 -3 -22 21 11 45
74 74 74 33z m-735 -12 c3 -5 2 -10 -4 -10 -5 0 -13 5 -16 10 -3 6 -2 10 4 10
5 0 13 -4 16 -10z m-1332 -13 c3 -8 1 -20 -5 -28 -8 -11 -9 -10 -4 4 5 15 2
17 -17 12 -22 -7 -22 -7 -2 9 24 19 22 19 28 3z m1760 -12 c-3 -9 -8 -14 -10
-11 -3 3 -2 9 2 15 9 16 15 13 8 -4z m-1379 -10 c-7 -16 -24 -21 -24 -6 0 8 7
13 27 20 1 1 0 -6 -3 -14z m706 -10 c0 -23 -2 -25 -22 -14 -21 11 -21 12 -3
25 25 18 25 18 25 -11z m-600 11 c0 -2 -9 -6 -20 -9 -11 -3 -18 -1 -14 4 5 9
34 13 34 5z m240 -10 c0 -8 -5 -18 -11 -22 -14 -8 -33 11 -25 25 10 16 36 13
36 -3z m1246 -1 c-3 -21 -13 -28 -27 -19 -9 5 -7 11 6 21 23 16 24 16 21 -2z
m-678 -12 c19 -36 -12 -59 -38 -28 -15 18 -6 45 14 45 9 0 19 -8 24 -17z
m-1330 -9 c22 -40 -19 -74 -47 -40 -9 11 -10 20 -1 35 13 25 36 27 48 5z m692
2 c0 -3 -4 -8 -10 -11 -5 -3 -10 -1 -10 4 0 6 5 11 10 11 6 0 10 -2 10 -4z
m-180 -26 c0 -13 -7 -20 -20 -20 -13 0 -20 7 -20 20 0 13 7 20 20 20 13 0 20
-7 20 -20z m146 -9 c-4 -5 -13 -8 -22 -4 -11 4 -12 8 -3 20 14 16 36 2 25 -16z
m-79 -21 c-1 -11 -7 -22 -13 -24 -7 -3 -11 2 -9 12 2 9 4 23 4 30 1 7 5 11 10
7 6 -3 9 -14 8 -25z m301 2 c4 -28 -14 -52 -38 -52 -26 0 -33 29 -15 57 20 29
49 26 53 -5z m-641 8 c16 0 20 -5 16 -20 -3 -13 -14 -20 -29 -20 -23 0 -30
-12 -38 -65 -2 -10 -8 -21 -14 -23 -7 -2 -9 15 -7 50 4 68 4 66 15 48 7 -12
12 -12 22 -2 10 10 10 14 -2 22 -8 5 -18 6 -22 4 -4 -3 -8 0 -8 7 0 7 9 9 23
5 12 -3 32 -6 44 -6z m360 -27 c-3 -10 -5 -4 -5 12 0 17 2 24 5 18 2 -7 2 -21
0 -30z m584 -1 c-9 -31 -38 -42 -48 -16 -4 11 1 23 16 36 29 23 41 16 32 -20z
m-1042 -8 c-6 -8 -8 -14 -4 -14 4 0 3 -6 -2 -12 -6 -7 -13 -21 -16 -30 -4 -13
-2 -16 11 -11 13 5 14 3 5 -7 -6 -7 -9 -20 -7 -29 3 -9 -1 -6 -7 6 -9 17 -19
21 -40 19 -16 -2 -26 1 -23 6 3 5 13 7 22 6 12 -2 16 3 14 20 -2 13 2 22 10
22 9 0 9 3 -2 10 -8 5 -10 10 -4 10 7 0 14 10 17 22 5 18 8 19 22 8 12 -10 13
-16 4 -26z m273 29 c-6 -2 -9 -10 -6 -15 4 -7 2 -8 -5 -4 -13 9 -5 26 12 25 9
0 8 -2 -1 -6z m254 -40 c-6 -14 -9 -15 -16 -4 -11 19 -1 46 13 32 5 -5 7 -18
3 -28z m-738 3 c-1 -15 -7 -22 -15 -19 -18 7 -16 43 2 43 9 0 14 -9 13 -24z
m462 9 c7 -9 8 -15 2 -15 -5 0 -12 7 -16 15 -3 8 -4 15 -2 15 2 0 9 -7 16 -15z
m140 -20 c0 -8 -6 -15 -14 -15 -17 0 -28 14 -19 24 12 12 33 6 33 -9z m-214
-3 c21 -14 23 -38 3 -39 -13 -1 -19 5 -19 18 0 11 -4 17 -10 14 -5 -3 -10 -1
-10 4 0 13 20 14 36 3z m267 -9 c-3 -10 -2 -14 2 -10 11 10 36 -72 29 -94 -10
-33 -74 -28 -74 6 0 7 -6 16 -12 18 -8 3 -7 6 4 6 9 1 20 5 23 11 3 5 0 7 -8
4 -16 -6 -31 22 -17 31 6 4 10 0 10 -8 0 -8 9 -14 23 -13 22 1 33 31 10 31 -6
0 -15 4 -20 9 -5 5 -3 6 5 2 7 -4 12 -1 12 8 0 9 4 16 10 16 5 0 7 -8 3 -17z
m187 -2 c0 -26 -17 -36 -35 -21 -18 15 -8 40 16 40 12 0 19 -7 19 -19z m295 9
c7 -12 -12 -40 -26 -40 -10 0 -12 34 -2 43 9 10 21 9 28 -3z m-1208 -22 c-3
-8 -6 -5 -6 6 -1 11 2 17 5 13 3 -3 4 -12 1 -19z m62 -11 c13 -19 12 -21 -1
-10 -8 7 -19 9 -23 5 -5 -4 -4 -1 0 7 6 11 4 13 -8 8 -11 -4 -14 -2 -11 8 7
18 26 10 43 -18z m301 24 c0 -6 -4 -13 -10 -16 -5 -3 -10 1 -10 9 0 9 5 16 10
16 6 0 10 -4 10 -9z m238 -14 c2 -11 -6 -21 -21 -26 -14 -5 -27 -16 -30 -23
-4 -10 -9 -9 -20 5 -8 10 -18 14 -21 9 -3 -5 6 -15 19 -22 14 -7 25 -17 25
-22 0 -4 5 -8 11 -8 8 0 8 5 -1 15 -7 8 -8 15 -2 15 15 0 33 -26 24 -36 -4 -4
1 -2 11 5 10 8 17 9 17 3 0 -6 -4 -14 -10 -17 -5 -3 -10 -11 -10 -17 0 -6 7
-5 18 3 16 13 16 12 3 -4 -12 -15 -12 -20 -2 -26 10 -6 9 -10 -3 -14 -9 -4
-15 -3 -14 1 4 12 -22 52 -33 52 -6 0 -8 -4 -5 -8 3 -5 -2 -19 -10 -31 -17
-24 -44 -21 -76 7 -16 14 -18 13 -18 -1 0 -10 5 -17 10 -17 6 0 10 -9 10 -20
0 -11 -7 -20 -15 -20 -15 0 -19 14 -16 55 2 19 1 19 -13 1 -19 -24 -37 -12
-34 25 2 29 18 42 18 14 0 -8 5 -15 10 -15 6 0 10 10 10 22 0 12 7 30 17 40
13 14 13 18 2 18 -12 0 -11 2 1 10 8 5 19 5 25 0 13 -11 27 -2 44 25 7 13 11
15 10 5 -5 -49 17 -55 33 -10 11 32 31 36 36 7z m-407 -10 c-10 -9 -11 -8 -5
6 3 10 9 15 12 12 3 -3 0 -11 -7 -18z m629 14 c0 -12 -29 -35 -36 -28 -11 10
5 37 21 37 8 0 15 -4 15 -9z m486 -2 c7 -13 -19 -43 -34 -38 -12 5 3 49 17 49
5 0 13 -5 17 -11z m282 -12 c2 -9 -4 -20 -13 -23 -20 -8 -50 19 -40 36 10 17
49 8 53 -13z m-1490 -12 c-3 -3 -9 2 -12 12 -6 14 -5 15 5 6 7 -7 10 -15 7
-18z m298 -27 c-1 -8 -9 -26 -17 -38 -14 -22 -15 -21 -14 21 3 74 3 76 19 53
8 -11 14 -27 12 -36z m841 26 c7 -18 -7 -46 -25 -52 -13 -4 -27 42 -17 57 10
17 35 13 42 -5z m-407 2 c0 -3 -4 -8 -10 -11 -5 -3 -10 -1 -10 4 0 6 5 11 10
11 6 0 10 -2 10 -4z m-188 -38 c-8 -8 -9 -4 -5 13 4 13 8 18 11 10 2 -7 -1
-18 -6 -23z m506 -2 c20 -34 15 -56 -15 -56 -10 0 -33 56 -33 83 0 20 30 3 48
-27z m-1155 9 c9 -8 17 -11 20 -7 2 4 2 1 0 -6 -1 -8 -3 -20 -3 -28 0 -23 -19
-16 -26 11 -5 22 -7 23 -22 9 -13 -13 -13 -17 -1 -25 11 -7 11 -9 -3 -9 -10 0
-18 -3 -18 -7 0 -5 -14 -9 -30 -10 -35 -3 -36 0 -10 37 11 15 16 30 13 34 -4
4 0 4 10 0 10 -3 17 -1 17 5 0 16 36 13 53 -4z m126 1 c18 -22 -3 -56 -34 -56
-15 0 -24 5 -22 13 1 6 -6 11 -15 11 -10 -1 -14 4 -11 12 2 7 10 11 18 8 7 -3
15 2 18 10 8 20 31 21 46 2z m181 -11 c14 -19 14 -19 -2 -6 -10 7 -18 18 -18
24 0 6 1 8 3 6 1 -2 9 -13 17 -24z m-68 -57 c-6 -6 -20 -7 -32 -3 -27 8 -23
37 8 50 12 5 23 14 24 20 0 5 3 -5 5 -24 3 -18 0 -38 -5 -43z m112 57 c-6 -16
-24 -21 -24 -7 0 11 11 22 21 22 5 0 6 -7 3 -15z m716 0 c6 -8 9 -19 5 -25 -4
-6 1 -17 11 -25 14 -10 16 -17 8 -25 -17 -17 -49 -8 -48 13 1 9 -2 17 -7 17
-5 0 -9 11 -9 23 0 38 18 48 40 22z m-142 -17 c13 -13 -2 -48 -21 -48 -23 0
-37 22 -26 42 11 21 30 23 47 6z m-571 -30 c5 -7 8 -28 6 -45 -1 -18 2 -33 7
-33 6 0 10 -5 10 -11 0 -8 -4 -9 -13 0 -8 6 -16 8 -19 6 -10 -10 -49 -14 -43
-4 4 5 2 9 -2 9 -18 0 -12 49 7 63 11 8 17 17 13 20 -3 4 1 7 9 7 9 0 20 -6
25 -12z m-479 -20 c-2 -8 6 -12 22 -11 14 1 19 0 13 -3 -7 -3 -13 -10 -13 -15
0 -6 7 -6 18 0 14 7 18 6 19 -9 1 -14 -5 -19 -25 -19 -62 2 -92 -4 -92 -18 0
-8 4 -11 10 -8 6 4 7 -1 4 -12 -4 -13 -1 -11 14 6 16 20 20 21 25 7 4 -9 2
-16 -3 -16 -6 0 -10 -5 -10 -11 0 -5 5 -7 10 -4 6 3 10 1 10 -4 0 -12 -27 -10
-47 2 -7 5 -13 4 -13 0 0 -5 6 -15 13 -22 10 -11 10 -13 0 -7 -8 4 -13 1 -13
-8 0 -10 6 -13 15 -10 23 9 18 -4 -6 -17 -21 -11 -22 -10 -17 39 3 30 0 56 -6
62 -7 7 -2 18 18 38 16 15 25 21 21 13 -6 -10 -4 -12 4 -7 7 5 10 14 7 21 -5
14 2 25 16 25 4 0 7 -6 6 -12z m238 -15 c1 -13 -5 -28 -12 -34 -10 -8 -14 -8
-14 0 0 6 4 11 10 11 5 0 7 7 4 15 -4 8 -10 15 -15 15 -5 0 -9 -7 -9 -15 0 -8
-4 -15 -10 -15 -5 0 -10 12 -10 26 0 22 4 25 28 22 20 -2 27 -9 28 -25z m554
17 c0 -5 -7 -10 -15 -10 -8 0 -15 5 -15 10 0 6 7 10 15 10 8 0 15 -4 15 -10z
m-92 -25 c0 -14 -4 -25 -8 -25 -5 0 -7 8 -5 18 2 9 4 20 4 25 2 18 9 4 9 -18z
m431 -21 c-20 -24 -66 -45 -84 -38 -20 8 -16 49 5 48 8 -1 24 -4 36 -8 16 -5
24 0 35 20 11 21 15 23 17 10 2 -9 -2 -24 -9 -32z m-859 16 c0 -5 -4 -10 -10
-10 -5 0 -10 5 -10 10 0 6 5 10 10 10 6 0 10 -4 10 -10z m56 -16 c9 -36 -14
-58 -40 -39 -13 10 -17 21 -12 39 9 35 43 35 52 0z m484 23 c0 -7 -38 -47 -44
-47 -9 0 27 49 37 50 4 0 7 -2 7 -3z m165 -44 c17 -20 20 -31 13 -40 -13 -16
-48 -17 -48 -2 0 7 -7 17 -17 24 -19 14 -11 45 12 45 9 0 27 -12 40 -27z
m-329 -40 c-11 -27 -36 -14 -36 20 0 24 3 28 10 17 8 -12 10 -12 10 5 1 17 3
17 11 -4 5 -14 7 -31 5 -38z m-616 37 c0 -5 -7 -10 -16 -10 -8 0 -12 5 -9 10
3 6 10 10 16 10 5 0 9 -4 9 -10z m160 -5 c0 -16 -27 -32 -37 -22 -3 4 -3 13 0
22 8 20 37 20 37 0z m679 -7 c23 -63 23 -65 -10 -77 -55 -19 -57 -15 -23 67
15 38 22 40 33 10z m-756 -15 c-7 -3 -13 -9 -13 -14 0 -6 5 -7 10 -4 6 3 10 1
10 -5 0 -6 5 -8 12 -4 7 5 8 3 3 -5 -4 -7 -11 -25 -16 -39 -8 -26 -9 -26 -6 6
3 24 0 31 -11 30 -8 -2 -17 2 -19 8 -5 14 27 48 36 38 3 -4 0 -9 -6 -11z m270
0 c-5 -12 -3 -14 8 -9 10 5 9 4 -1 -6 -9 -7 -14 -21 -12 -30 2 -11 -3 -18 -12
-18 -9 0 -16 -8 -16 -17 0 -13 7 -10 30 12 25 24 32 27 43 15 10 -10 9 -11 -2
-5 -9 5 -12 4 -8 -2 4 -6 18 -8 32 -5 28 5 33 -9 11 -27 -12 -10 -20 -9 -39 4
-20 13 -26 13 -36 2 -6 -8 -7 -17 -3 -21 4 -4 -5 -2 -20 5 -31 13 -32 17 -18
39 6 9 5 20 -3 29 -10 12 -9 14 6 8 13 -5 20 0 27 18 5 14 12 25 14 25 3 0 2
-7 -1 -17z m-315 -10 c0 -10 -1 -32 -4 -49 -4 -26 -8 -31 -25 -27 -24 7 -41
36 -33 57 3 8 18 19 32 25 15 5 27 10 28 10 0 1 1 -7 2 -16z m362 10 c0 -5 -5
-15 -10 -23 -8 -12 -10 -11 -10 8 0 12 5 22 10 22 6 0 10 -3 10 -7z m73 -18
c-4 -11 -1 -13 11 -9 9 3 16 1 16 -5 0 -12 -6 -13 -37 -5 -25 7 -31 29 -10 37
18 6 27 -2 20 -18z m258 8 c6 -48 2 -77 -13 -86 -9 -6 -20 -8 -24 -5 -12 13
-14 71 -3 85 12 14 38 18 40 6z m-466 -43 c0 -16 -6 -26 -19 -28 -27 -6 -40
12 -26 38 15 28 45 22 45 -10z m325 -14 c0 -8 -4 -17 -9 -20 -5 -3 -11 -14
-14 -25 -8 -31 19 -33 53 -5 28 24 60 27 60 6 0 -28 -122 -61 -147 -40 -18 15
-16 45 5 73 19 27 52 33 52 11z m-703 -28 c2 -18 0 -20 -7 -8 -12 18 -13 30
-2 30 4 0 9 -10 9 -22z m229 -10 c4 -7 4 -10 -1 -6 -4 4 -15 2 -24 -5 -14 -11
-14 -10 -2 6 16 20 18 21 27 5z m257 -51 c13 -18 27 -45 31 -62 l7 -30 -21 23
c-11 12 -30 22 -40 22 -13 0 -22 9 -26 28 -3 15 -7 32 -9 39 -11 34 26 22 58
-20z m110 17 c23 -31 16 -54 -18 -54 -31 0 -39 17 -26 53 13 33 21 33 44 1z
m-458 -21 c-2 -10 -4 -24 -4 -30 -1 -18 -40 -16 -47 2 -10 25 4 45 30 45 18 0
23 -5 21 -17z m161 2 c7 -18 -13 -45 -33 -45 -17 0 -27 24 -19 45 7 20 45 19
52 0z m77 -26 c10 -18 16 -33 14 -35 -1 -2 -22 -6 -45 -10 -36 -6 -42 -4 -42
12 0 16 36 64 49 64 3 0 14 -14 24 -31z m1763 -21 c-9 -12 -16 -19 -16 -15 0
11 24 47 28 42 2 -2 -3 -14 -12 -27z m-2128 -15 c-2 -10 -10 -18 -18 -18 -8 0
-16 8 -18 18 -2 12 3 17 18 17 15 0 20 -5 18 -17z m226 -15 c-11 -4 -30 -12
-44 -18 -14 -5 -32 -14 -40 -19 -26 -15 -83 -31 -91 -25 -5 3 -9 14 -9 26 0
17 4 20 30 15 16 -4 32 -2 36 4 3 6 17 9 30 6 13 -2 24 -1 24 2 0 4 12 14 27
23 21 13 31 14 41 5 12 -9 11 -13 -4 -19z m-287 -44 c8 -21 -13 -42 -28 -27
-13 13 -5 43 11 43 6 0 13 -7 17 -16z m161 -41 c-4 -22 -22 -20 -26 1 -2 10 3
16 13 16 10 0 15 -7 13 -17z m-149 -39 c-5 -7 -23 -17 -40 -24 -25 -11 -32
-10 -49 5 -31 28 -25 33 39 32 44 -1 57 -5 50 -13z m608 -128 c-16 -24 -78
-76 -90 -76 -4 0 17 24 46 53 55 55 70 63 44 23z"/>
<path d="M4834 4076 c-3 -8 -4 -22 -2 -31 2 -12 7 -7 15 14 6 18 7 31 2 31 -5
0 -12 -6 -15 -14z"/>
<path d="M6555 4540 c3 -5 14 -10 23 -10 15 0 15 2 2 10 -20 13 -33 13 -25 0z"/>
<path d="M6650 4542 c0 -12 19 -26 26 -19 2 2 -2 10 -11 17 -9 8 -15 8 -15 2z"/>
<path d="M5596 4527 c3 -10 9 -15 12 -12 3 3 0 11 -7 18 -10 9 -11 8 -5 -6z"/>
<path d="M6324 4521 c0 -11 5 -17 10 -14 5 4 7 0 4 -9 -4 -8 -1 -15 6 -15 6 0
12 8 12 18 0 10 -2 16 -5 14 -2 -3 -9 2 -15 11 -10 13 -12 13 -12 -5z"/>
<path d="M6730 4533 c0 -5 5 -15 10 -23 8 -12 10 -11 10 8 0 12 -4 22 -10 22
-5 0 -10 -3 -10 -7z"/>
<path d="M6829 4523 c-13 -16 -12 -17 4 -4 9 7 17 15 17 17 0 8 -8 3 -21 -13z"/>
<path d="M5627 4523 c-4 -3 -7 -20 -7 -36 0 -21 4 -28 14 -24 11 4 13 1 9 -10
-4 -11 -2 -14 5 -9 7 4 12 23 12 43 0 32 -2 34 -17 22 -15 -12 -16 -12 -10 4
7 18 5 21 -6 10z"/>
<path d="M4785 4510 c-6 -10 11 -50 21 -50 3 0 3 4 0 9 -4 5 0 12 6 14 8 3 5
6 -6 6 -12 1 -16 6 -12 16 6 17 0 20 -9 5z"/>
<path d="M5670 4498 c0 -16 5 -28 10 -28 13 0 13 20 0 40 -8 12 -10 9 -10 -12z"/>
<path d="M5839 4477 c-2 -25 -1 -43 4 -40 4 2 7 12 7 21 0 15 2 15 11 2 8 -11
9 -8 4 15 -11 49 -23 50 -26 2z"/>
<path d="M5870 4508 c0 -7 5 -20 10 -28 8 -12 10 -11 10 7 0 12 -4 25 -10 28
-5 3 -10 0 -10 -7z"/>
<path d="M6275 4510 c-3 -6 1 -7 9 -4 18 7 21 14 7 14 -6 0 -13 -4 -16 -10z"/>
<path d="M5901 4488 c0 -13 3 -17 6 -10 2 6 10 9 16 5 7 -4 6 1 -2 10 -18 22
-21 21 -20 -5z"/>
<path d="M6390 4499 c0 -5 5 -7 10 -4 6 3 10 8 10 11 0 2 -4 4 -10 4 -5 0 -10
-5 -10 -11z"/>
<path d="M4876 4492 c-12 -11 -6 -32 10 -32 8 0 12 4 9 10 -4 6 1 7 11 3 11
-4 15 -2 12 7 -4 14 -33 22 -42 12z"/>
<path d="M6150 4490 c0 -5 5 -10 11 -10 5 0 7 5 4 10 -3 6 -8 10 -11 10 -2 0
-4 -4 -4 -10z"/>
<path d="M7530 4468 c0 -17 3 -28 7 -25 9 10 10 57 1 57 -4 0 -8 -14 -8 -32z"/>
<path d="M4730 4480 c0 -5 10 -10 23 -10 18 0 19 2 7 10 -19 13 -30 13 -30 0z"/>
<path d="M5193 4477 c3 -9 2 -19 -4 -22 -5 -4 -6 -11 -3 -17 4 -6 -1 -17 -11
-25 -11 -7 -14 -13 -8 -13 7 0 15 5 18 11 5 7 15 3 30 -11 13 -12 25 -17 29
-12 3 6 1 12 -4 14 -6 2 -12 13 -13 26 0 12 -5 22 -9 22 -4 0 -8 6 -8 14 0 8
-5 18 -12 22 -8 5 -9 2 -5 -9z m21 -53 c3 -8 2 -12 -4 -9 -6 3 -10 10 -10 16
0 14 7 11 14 -7z"/>
<path d="M6200 4470 c-1 -8 -2 -23 -1 -32 1 -10 -3 -26 -9 -38 -9 -16 -7 -24
10 -42 21 -23 22 -40 2 -44 -7 -1 -8 0 -2 3 15 7 12 17 -10 31 -19 11 -20 10
-18 -19 2 -19 -2 -34 -9 -36 -7 -3 -13 3 -13 13 0 14 -3 15 -12 6 -18 -18 9
-33 41 -25 18 4 22 3 16 -7 -5 -8 -3 -11 4 -9 7 3 12 8 11 13 -1 5 4 12 11 16
17 11 24 121 7 118 -7 -2 -15 11 -19 32 -3 19 -7 28 -9 20z"/>
<path d="M6393 4466 c4 -10 7 -24 7 -32 0 -9 5 -12 12 -8 7 4 8 3 4 -4 -4 -6
-13 -9 -21 -6 -12 5 -13 1 -4 -25 12 -33 29 -43 25 -13 -2 9 1 20 7 24 7 4 6
17 -3 37 -13 33 -39 58 -27 27z"/>
<path d="M5370 4461 c0 -5 5 -13 10 -16 6 -3 10 -2 10 4 0 5 -4 13 -10 16 -5
3 -10 2 -10 -4z"/>
<path d="M6018 4463 c7 -3 16 -2 19 1 4 3 -2 6 -13 5 -11 0 -14 -3 -6 -6z"/>
<path d="M7781 4460 c14 -8 15 -15 5 -44 -6 -18 -17 -41 -25 -49 -15 -19 -41
-12 -42 12 0 9 -5 3 -11 -12 -12 -35 -34 -29 -31 8 2 26 1 26 -17 10 -17 -16
-19 -15 -25 4 -3 12 -13 21 -21 21 -12 0 -12 -4 -4 -20 12 -22 1 -27 -18 -8
-9 9 -12 8 -12 -4 0 -8 -7 -21 -15 -28 -11 -9 -15 -55 -4 -55 1 0 2 -13 3 -30
1 -16 6 -28 10 -27 5 2 13 -2 18 -10 8 -10 9 -9 5 4 -4 11 0 16 12 15 9 0 18
-10 19 -21 0 -11 9 -26 18 -33 15 -11 12 -13 -27 -13 -53 0 -320 38 -328 47
-3 3 19 3 49 0 30 -4 62 -2 70 3 10 6 11 10 3 10 -16 0 -17 32 -2 47 9 9 7 12
-7 12 -64 1 -123 7 -129 13 -4 4 -15 2 -25 -5 -28 -17 -67 5 -75 42 -7 34 -35
49 -47 26 -13 -22 -38 -19 -38 5 0 29 -17 25 -28 -7 -6 -16 -11 -21 -11 -13
-1 13 -3 13 -12 0 -9 -13 -10 -13 -6 2 10 29 -16 39 -35 13 -18 -23 -17 -24
15 -31 17 -4 35 -7 40 -6 4 1 7 -3 7 -9 0 -6 7 -8 16 -5 8 3 13 2 10 -3 -3 -5
5 -20 19 -32 22 -22 25 -32 25 -109 l0 -86 48 -46 c53 -53 149 -102 215 -112
59 -9 180 17 228 49 21 14 46 40 55 57 l16 33 -43 -40 c-40 -36 -41 -37 -13
-5 20 22 40 63 55 110 12 41 26 83 31 92 12 24 38 11 38 -18 0 -14 6 -24 14
-24 19 0 37 25 31 43 -4 10 3 18 24 25 35 12 46 43 38 105 -4 32 -14 49 -43
75 -21 17 -42 32 -48 32 -6 0 -4 -5 5 -10z m-1 -100 c-12 -8 -11 -10 8 -10 12
0 22 -6 22 -14 0 -29 -13 -46 -35 -46 -21 0 -23 3 -15 30 5 17 6 30 4 30 -3 0
-2 5 1 10 3 6 12 10 18 10 7 0 6 -4 -3 -10z m-120 -44 c0 -8 -7 -16 -15 -20
-10 -4 -15 1 -15 14 0 11 7 20 15 20 8 0 15 -6 15 -14z m-69 -23 c13 -16 12
-17 -3 -4 -10 7 -18 15 -18 17 0 8 8 3 21 -13z m89 -34 c0 -25 -26 -24 -40 1
-9 16 -8 19 6 13 12 -4 15 -3 10 5 -5 8 -2 10 8 6 9 -3 16 -15 16 -25z"/>
<path d="M5876 4445 c-9 -26 -7 -32 5 -12 6 10 9 21 6 23 -2 3 -7 -2 -11 -11z"/>
<path d="M6468 4443 c7 -3 16 -2 19 1 4 3 -2 6 -13 5 -11 0 -14 -3 -6 -6z"/>
<path d="M4700 4430 c0 -5 -8 -7 -17 -3 -10 3 -15 3 -12 -1 4 -4 16 -8 27 -11
15 -2 19 0 15 11 -6 16 -13 19 -13 4z"/>
<path d="M4889 4410 c-21 -26 -49 -44 -35 -22 2 4 -2 15 -9 25 -13 18 -14 17
-20 -2 -3 -12 -11 -19 -16 -16 -5 3 -6 -1 -3 -9 3 -9 12 -16 20 -16 8 0 14 -7
14 -15 0 -8 5 -15 10 -15 6 0 10 6 10 14 0 7 7 19 15 26 13 11 15 8 15 -16 0
-21 3 -25 9 -15 5 7 14 11 20 7 7 -5 9 -1 5 8 -3 9 -10 14 -14 11 -5 -3 -5 9
0 27 13 42 7 45 -21 8z m-45 -9 c3 -5 -1 -11 -9 -14 -9 -4 -12 -1 -8 9 6 16
10 17 17 5z"/>
<path d="M7668 4423 c7 -3 16 -2 19 1 4 3 -2 6 -13 5 -11 0 -14 -3 -6 -6z"/>
<path d="M4928 4409 c-3 -8 0 -28 7 -44 13 -29 13 -29 13 -5 1 14 -3 34 -7 44
-6 16 -9 16 -13 5z"/>
<path d="M7045 4403 c-7 -20 -7 -23 7 -23 6 0 8 3 5 7 -4 3 1 11 9 18 15 11
15 12 1 12 -9 0 -19 -7 -22 -14z"/>
<path d="M7530 4408 c0 -4 7 -8 15 -8 8 0 15 4 15 8 0 5 -7 9 -15 9 -8 0 -15
-4 -15 -9z"/>
<path d="M6600 4400 c0 -5 5 -10 11 -10 5 0 7 5 4 10 -3 6 -8 10 -11 10 -2 0
-4 -4 -4 -10z"/>
<path d="M4712 4360 c2 -47 10 -44 15 5 2 20 -1 35 -7 35 -6 0 -10 -17 -8 -40z"/>
<path d="M7210 4376 c0 -2 11 -6 25 -8 13 -3 22 -1 19 3 -5 9 -44 13 -44 5z"/>
<path d="M6255 4351 c-3 -5 -1 -12 5 -16 5 -3 10 1 10 9 0 18 -6 21 -15 7z"/>
<path d="M7357 4333 c-12 -11 -8 -23 8 -23 8 0 15 7 15 15 0 16 -12 20 -23 8z"/>
<path d="M4739 4313 c-13 -17 -13 -17 6 -3 11 8 22 16 24 17 2 2 0 3 -6 3 -6
0 -17 -8 -24 -17z"/>
<path d="M4678 4313 c6 -2 10 -9 7 -14 -4 -5 1 -6 10 -2 13 5 14 7 3 14 -7 5
-17 8 -23 8 -5 0 -4 -3 3 -6z"/>
<path d="M4775 4311 c-3 -5 -1 -12 4 -15 5 -3 11 1 15 9 6 16 -9 21 -19 6z"/>
<path d="M4814 4295 c-8 -7 -7 -14 2 -23 8 -7 15 -8 19 -2 3 6 1 10 -6 10 -7
0 -5 6 5 13 14 10 15 14 4 14 -7 0 -19 -5 -24 -12z"/>
<path d="M4859 4293 c-13 -16 -12 -17 4 -4 16 13 21 21 13 21 -2 0 -10 -8 -17
-17z"/>
<path d="M4603 4270 c1 -14 7 -25 12 -25 6 0 11 11 12 25 2 22 2 23 -6 5 l-8
-20 -6 20 c-4 15 -5 14 -4 -5z"/>
<path d="M7494 4275 c-4 -8 -10 -12 -15 -9 -5 3 -9 0 -9 -6 0 -6 -4 -8 -10 -5
-5 3 -10 2 -10 -3 0 -5 11 -9 24 -9 17 0 25 6 29 23 5 27 -1 32 -9 9z"/>
<path d="M7528 4223 c7 -3 16 -2 19 1 4 3 -2 6 -13 5 -11 0 -14 -3 -6 -6z"/>
<path d="M8863 4223 c-13 -2 -23 -8 -23 -13 0 -10 56 -2 80 11 11 6 8 8 -10 7
-14 0 -35 -3 -47 -5z"/>
<path d="M4566 4211 c-3 -5 1 -11 9 -14 9 -4 12 -1 8 9 -6 16 -10 17 -17 5z"/>
<path d="M6011 4070 c-12 -7 -10 -24 12 -107 42 -158 57 -259 63 -408 4 -94
12 -160 24 -201 10 -33 21 -81 25 -107 4 -27 11 -44 17 -41 7 4 8 36 2 88 -4
44 -7 92 -6 106 3 42 -9 131 -17 126 -4 -3 -7 25 -7 62 0 61 -78 467 -93 484
-3 4 -13 3 -20 -2z"/>
<path d="M2690 3936 c0 -2 8 -10 18 -17 15 -13 16 -12 3 4 -13 16 -21 21 -21
13z"/>
<path d="M4047 3793 c-4 -3 -7 -11 -7 -17 0 -6 5 -5 12 2 6 6 9 14 7 17 -3 3
-9 2 -12 -2z"/>
<path d="M10195 3730 c70 -81 143 -192 185 -284 108 -231 184 -558 195 -831
l4 -120 -14 85 c-33 208 -55 322 -79 418 -35 137 -75 260 -86 267 -19 12 -19
-15 0 -69 45 -132 163 -682 185 -866 19 -153 19 -325 -1 -484 -15 -122 -15
-131 3 -175 63 -159 -68 -691 -212 -859 -39 -45 -39 -50 4 -28 100 52 192 237
253 511 21 93 23 124 23 440 0 850 -63 1303 -231 1664 -70 150 -122 227 -218
326 l-59 60 48 -55z"/>
<path d="M6528 3713 c7 -3 16 -2 19 1 4 3 -2 6 -13 5 -11 0 -14 -3 -6 -6z"/>
<path d="M5965 3637 c-4 -10 10 -103 34 -220 23 -111 41 -215 41 -231 0 -25 3
-28 23 -22 12 3 28 6 36 6 22 0 8 121 -24 205 -14 39 -35 99 -45 133 -11 35
-23 69 -28 75 -5 7 -14 26 -19 42 -9 25 -12 27 -18 12z"/>
<path d="M5488 3413 c6 -2 18 -2 25 0 6 3 1 5 -13 5 -14 0 -19 -2 -12 -5z"/>
<path d="M499 3343 c-13 -16 -12 -17 4 -4 9 7 17 15 17 17 0 8 -8 3 -21 -13z"/>
<path d="M4259 3318 c-6 -21 -5 -39 2 -44 5 -3 9 6 9 20 0 21 -7 36 -11 24z"/>
<path d="M6060 3088 c-33 -9 -34 -10 -15 -25 11 -8 27 -20 35 -26 9 -7 36 -40
60 -74 47 -65 60 -75 61 -45 0 15 1 14 8 -3 7 -18 8 -17 14 7 8 31 1 76 -20
136 -15 41 -16 42 -62 41 -25 0 -62 -5 -81 -11z"/>
<path d="M9455 2751 c-60 -16 -138 -40 -172 -54 -147 -60 -299 -194 -356 -314
-31 -65 -32 -73 -32 -193 0 -120 1 -127 32 -191 35 -72 114 -154 179 -187 57
-29 150 -43 262 -41 53 2 123 -1 154 -6 71 -10 102 7 118 62 5 21 17 112 26
203 8 91 20 182 26 203 8 28 8 44 -1 63 -12 27 -12 27 -100 21 -166 -12 -313
-52 -367 -99 -28 -25 -34 -37 -34 -69 0 -73 76 -112 178 -91 30 6 58 9 61 7
21 -21 -107 -50 -182 -41 -172 20 -211 197 -72 324 80 75 179 109 344 119 l98
6 11 114 c13 145 1 193 -48 192 -8 0 -64 -13 -125 -28z"/>
<path d="M1100 2719 c-64 -12 -110 -63 -110 -122 0 -44 18 -80 49 -97 11 -5
72 -14 137 -20 66 -6 122 -15 127 -19 14 -14 57 -447 57 -582 0 -75 10 -90 77
-109 60 -18 110 -6 133 32 29 48 36 132 16 175 -14 30 -15 38 -3 52 7 9 24 85
36 170 12 84 27 180 33 212 l10 59 107 0 106 0 28 34 c25 32 27 42 27 124 l0
90 -31 6 c-47 9 -747 5 -799 -5z"/>
<path d="M3582 2710 c-40 -9 -98 -62 -107 -97 -4 -16 0 -31 9 -42 8 -9 25 -39
36 -66 103 -242 266 -557 313 -604 22 -23 46 -41 52 -41 19 0 80 72 115 135
18 33 71 121 118 195 249 395 277 450 240 463 -31 10 -70 -18 -120 -86 -44
-61 -249 -286 -269 -295 -3 -1 -50 80 -104 180 -91 172 -129 229 -165 248 -26
13 -84 18 -118 10z m308 -795 c0 -8 -4 -15 -9 -15 -5 0 -11 7 -15 15 -3 9 0
15 9 15 8 0 15 -7 15 -15z"/>
<path d="M2043 2691 c-24 -11 -48 -31 -56 -48 -18 -35 -31 -478 -21 -683 7
-130 8 -136 35 -163 24 -23 36 -28 70 -25 68 5 83 35 87 169 l4 109 58 0 57 0
28 -52 c60 -111 157 -189 264 -214 68 -16 211 -18 280 -3 64 13 133 58 170
110 l31 41 102 4 c57 2 131 1 165 -2 l62 -6 17 -43 c19 -52 45 -78 98 -100 50
-21 99 -13 126 22 40 51 31 81 -167 546 -86 202 -143 323 -156 332 -12 8 -35
15 -52 15 -41 0 -114 -48 -122 -80 -11 -44 -183 -451 -248 -587 -35 -73 -69
-133 -75 -133 -23 0 -157 100 -214 159 l-59 62 31 32 c34 35 57 83 78 162 63
231 -126 395 -450 395 -78 0 -111 -5 -143 -19z m462 -101 c3 -5 1 -10 -4 -10
-6 0 -11 5 -11 10 0 6 2 10 4 10 3 0 8 -4 11 -10z m-126 -177 c45 -42 46 -100
2 -144 -27 -27 -35 -29 -105 -29 l-76 0 0 93 c0 52 3 97 7 100 3 4 37 7 75 7
60 0 71 -3 97 -27z m867 -175 c10 -30 10 -39 -1 -48 -18 -15 -58 9 -49 30 4 8
9 25 12 38 6 32 23 23 38 -20z m-836 -319 c0 -5 -4 -9 -10 -9 -5 0 -10 7 -10
16 0 8 5 12 10 9 6 -3 10 -10 10 -16z"/>
<path d="M4537 2685 c-33 -7 -69 -18 -82 -25 -52 -28 -65 -119 -72 -516 l-6
-322 26 -16 c33 -22 164 -36 345 -36 l144 0 28 28 c46 46 53 160 13 204 -14
16 -34 18 -175 18 l-159 0 3 33 3 32 110 2 c92 1 111 4 122 19 21 29 33 84 33
151 0 89 -6 93 -151 93 l-119 0 0 25 0 25 103 0 c57 0 107 4 113 9 5 5 23 11
39 13 l30 3 3 122 3 122 -30 16 c-37 19 -237 19 -324 0z m-70 -147 c-3 -8 -6
-5 -6 6 -1 11 2 17 5 13 3 -3 4 -12 1 -19z"/>
<path d="M5185 2685 c-54 -19 -65 -38 -65 -109 0 -34 -3 -208 -7 -387 -3 -179
-3 -337 1 -352 12 -51 44 -57 304 -64 265 -7 274 -5 299 55 20 49 21 148 1
168 -12 12 -48 16 -183 17 l-169 2 2 115 c3 121 19 425 27 498 5 41 3 44 -30
58 -43 18 -128 17 -180 -1z"/>
<path d="M7298 2686 c-84 -23 -78 13 -78 -457 l0 -419 26 -16 c20 -14 67 -19
242 -26 119 -5 231 -7 249 -3 42 8 80 54 88 109 8 53 -9 112 -35 126 -10 6
-85 10 -165 10 l-147 0 6 298 c4 163 9 314 12 334 5 33 3 38 -18 42 -61 13
-137 14 -180 2z"/>
<path d="M6155 2670 c-19 -21 -19 -22 4 -109 22 -85 22 -94 15 -428 l-7 -341
21 -11 c27 -15 443 -26 576 -16 113 8 149 27 184 95 66 132 -41 411 -169 437
l-29 6 0 99 c0 61 -5 111 -14 132 -21 49 -71 101 -124 127 -43 22 -62 24 -242
27 -190 4 -196 3 -215 -18z m390 -260 c40 -33 0 -90 -62 -90 -57 0 -82 52 -46
93 14 15 27 18 56 14 21 -3 44 -11 52 -17z m200 -362 c-4 -18 -13 -36 -19 -40
-6 -5 -76 -7 -156 -5 -143 2 -145 2 -148 25 -7 46 -2 47 168 50 l162 3 -7 -33z"/>
<path d="M8233 2662 c-69 -24 -118 -60 -192 -137 -154 -160 -166 -347 -38
-548 21 -32 45 -61 55 -64 9 -4 31 -23 49 -43 49 -56 160 -104 255 -108 115
-6 167 15 249 98 52 53 78 90 124 183 63 128 74 177 55 259 -23 98 -68 178
-144 254 -96 95 -145 118 -266 121 -73 3 -107 -1 -147 -15z m-38 -72 c-3 -5
-12 -10 -18 -10 -7 0 -6 4 3 10 19 12 23 12 15 0z m276 -217 c52 -48 89 -113
89 -155 0 -14 -12 -37 -27 -53 -33 -32 -171 -115 -193 -115 -21 0 -107 68
-143 112 -80 100 -15 228 135 263 62 14 72 11 139 -52z"/>
<path d="M7932 2560 c0 -14 2 -19 5 -12 2 6 2 18 0 25 -3 6 -5 1 -5 -13z"/>
<path d="M6062 2520 c0 -14 2 -19 5 -12 2 6 2 18 0 25 -3 6 -5 1 -5 -13z"/>
<path d="M6072 2465 c0 -16 2 -22 5 -12 2 9 2 23 0 30 -3 6 -5 -1 -5 -18z"/>
<path d="M5487 2318 c-4 -46 -9 -101 -12 -123 -6 -35 -5 -37 6 -20 12 18 27
225 17 225 -3 0 -8 -37 -11 -82z"/>
<path d="M2250 1896 c0 -8 5 -18 10 -21 6 -3 10 1 10 9 0 8 -4 18 -10 21 -5 3
-10 -1 -10 -9z"/>
<path d="M217 1844 c-3 -19 -2 -45 3 -57 7 -17 9 -8 9 36 1 65 -4 73 -12 21z"/>
<path d="M8900 1852 c0 -12 5 -22 12 -22 6 0 21 -8 32 -17 16 -13 15 -10 -4
12 -14 17 -28 34 -32 40 -5 5 -8 -1 -8 -13z"/>
<path d="M4291 1830 c0 -8 4 -22 9 -30 12 -18 12 -2 0 25 -6 13 -9 15 -9 5z"/>
<path d="M7116 1797 c3 -10 9 -15 12 -12 3 3 0 11 -7 18 -10 9 -11 8 -5 -6z"/>
<path d="M3821 1765 c25 -25 28 -26 54 -13 l28 15 -34 6 c-19 3 -43 9 -54 13
-17 6 -16 2 6 -21z"/>
<path d="M7875 1740 c-3 -5 -1 -10 4 -10 6 0 11 5 11 10 0 6 -2 10 -4 10 -3 0
-8 -4 -11 -10z"/>
<path d="M4366 1703 c9 -38 14 -42 14 -10 0 14 -5 29 -10 32 -7 4 -8 -3 -4
-22z"/>
<path d="M1320 1680 c8 -5 22 -10 30 -10 13 0 13 1 0 10 -8 5 -22 10 -30 10
-13 0 -13 -1 0 -10z"/>
<path d="M5220 1686 c0 -2 7 -9 15 -16 9 -7 15 -8 15 -2 0 5 -7 12 -15 16 -8
3 -15 4 -15 2z"/>
<path d="M7760 1680 c-13 -8 -12 -10 3 -10 9 0 17 5 17 10 0 12 -1 12 -20 0z"/>
<path d="M9620 1680 c0 -5 4 -10 9 -10 6 0 13 5 16 10 3 6 -1 10 -9 10 -9 0
-16 -4 -16 -10z"/>
<path d="M6360 1676 c0 -2 11 -6 25 -8 14 -3 25 -1 25 3 0 5 -11 9 -25 9 -14
0 -25 -2 -25 -4z"/>
<path d="M5691 1634 c0 -11 3 -14 6 -6 3 7 2 16 -1 19 -3 4 -6 -2 -5 -13z"/>
<path d="M910 1594 c-6 -14 -10 -36 -10 -50 0 -28 41 -74 65 -74 11 0 7 8 -15
27 -29 24 -31 31 -28 75 1 26 2 48 0 48 -1 0 -7 -12 -12 -26z"/>
<path d="M4351 1533 c-17 -78 -88 -225 -144 -299 -83 -109 -239 -243 -330
-282 -38 -16 -43 -15 -21 6 10 9 25 27 31 39 9 16 -4 11 -52 -23 -185 -130
-425 -184 -666 -150 -131 18 -144 16 -280 -47 -164 -76 -303 -106 -597 -128
-85 -6 -229 -9 -320 -7 -154 5 -174 7 -255 36 -97 34 -156 65 -232 123 -30 22
-66 40 -90 43 -22 3 -33 3 -25 0 32 -14 42 -27 28 -35 -10 -7 -10 -9 2 -10 10
0 9 -3 -4 -8 -16 -6 -10 -10 27 -21 26 -7 47 -16 47 -21 0 -4 -17 -13 -37 -18
-21 -5 -67 -18 -103 -27 -38 -10 -101 -17 -150 -17 -112 1 -176 25 -269 103
-39 33 -71 57 -71 54 0 -14 75 -116 102 -139 104 -87 231 -102 496 -58 113 19
110 19 267 -38 85 -31 98 -33 255 -37 91 -2 235 1 320 7 319 24 493 62 643
138 80 41 96 45 156 45 36 -1 99 -8 139 -17 141 -29 326 -14 466 39 139 53
386 229 496 353 111 125 174 254 185 377 4 42 5 76 3 76 -3 0 -10 -26 -17 -57z"/>
<path d="M10546 1458 c-8 -24 -25 -77 -37 -118 -28 -99 -107 -281 -152 -351
-74 -116 -187 -194 -347 -238 -161 -44 -535 -95 -760 -102 l-65 -3 -8 52 c-13
80 -27 86 -195 79 -146 -6 -254 -21 -502 -67 -413 -78 -881 -96 -1111 -44
-181 41 -331 122 -472 253 -26 24 -45 37 -41 27 5 -14 3 -15 -22 -6 -16 6 -32
16 -36 23 -4 6 -10 9 -13 5 -10 -10 139 -148 218 -202 135 -92 301 -157 482
-187 51 -9 163 -14 310 -14 260 0 369 12 685 76 273 54 613 89 637 65 4 -4 10
-31 13 -59 l5 -52 85 -3 c224 -9 692 55 885 120 201 68 326 220 421 511 24 76
38 138 41 195 3 45 3 82 0 82 -3 0 -12 -19 -21 -42z m-3696 -538 c0 -5 -2 -10
-4 -10 -3 0 -8 5 -11 10 -3 6 -1 10 4 10 6 0 11 -4 11 -10z m30 0 c0 -5 -4
-10 -10 -10 -5 0 -10 5 -10 10 0 6 5 10 10 10 6 0 10 -4 10 -10z"/>
<path d="M452 1425 c0 -16 2 -22 5 -12 2 9 2 23 0 30 -3 6 -5 -1 -5 -18z"/>
<path d="M332 1330 c0 -19 2 -27 5 -17 2 9 2 25 0 35 -3 9 -5 1 -5 -18z"/>
<path d="M9398 1213 c7 -3 16 -2 19 1 4 3 -2 6 -13 5 -11 0 -14 -3 -6 -6z"/>
<path d="M6010 1190 c-8 -5 -16 -14 -16 -20 -1 -5 -2 -15 -3 -21 -1 -8 -7 -7
-18 2 -17 13 -17 12 -4 -4 30 -38 131 -66 131 -37 0 21 -30 70 -49 80 -24 12
-22 12 -41 0z"/>
<path d="M365 1131 c0 -54 12 -81 26 -60 13 21 11 46 -8 77 l-18 29 0 -46z"/>
<path d="M9791 1064 c-18 -20 -30 -39 -27 -42 7 -7 44 26 58 51 17 33 1 29
-31 -9z"/>
<path d="M6805 1000 c10 -11 20 -20 23 -20 3 0 -3 9 -13 20 -10 11 -20 20 -23
20 -3 0 3 -9 13 -20z"/>
<path d="M8950 1005 c-14 -8 -20 -14 -14 -15 5 0 19 7 30 15 24 18 16 19 -16
0z"/>
<path d="M8991 1000 c-13 -11 -19 -20 -14 -20 6 0 18 9 28 20 23 25 17 25 -14
0z"/>
<path d="M1711 993 c-1 -7 11 -25 27 -41 15 -15 18 -17 7 -4 -17 20 -17 24 -5
33 13 9 12 10 -2 6 -9 -3 -19 -1 -22 6 -3 9 -5 9 -5 0z"/>
<path d="M724 791 c3 -5 15 -11 26 -14 17 -4 19 -3 9 9 -12 15 -44 20 -35 5z"/>
<path d="M3641 702 c-44 -24 -49 -39 -17 -48 17 -4 41 2 71 16 43 21 59 40 33
40 -7 0 -22 3 -33 5 -11 3 -36 -3 -54 -13z"/>
<path d="M2985 660 c-37 -8 -75 -31 -75 -46 0 -6 -18 -19 -40 -29 -43 -19 -48
-30 -26 -60 12 -17 16 -17 31 -5 9 7 25 31 36 52 18 36 22 38 67 38 44 0 72
12 72 32 0 15 -35 25 -65 18z"/>
<path d="M3357 663 c-12 -12 -7 -50 8 -63 12 -10 21 -10 45 0 37 15 37 23 4
49 -27 22 -46 26 -57 14z"/>
<path d="M1564 558 c3 -13 6 -31 6 -40 0 -23 28 -23 59 1 l23 18 -27 21 c-38
30 -69 30 -61 0z"/>
<path d="M2623 549 c-41 -12 -47 -22 -23 -44 22 -20 51 -14 80 17 33 36 10 46
-57 27z"/>
<path d="M1442 541 c-20 -12 -11 -42 15 -52 17 -6 29 -3 50 16 l28 23 -28 11
c-34 13 -48 14 -65 2z"/>
<path d="M8770 526 c0 -28 17 -43 32 -28 7 7 6 17 -1 31 -16 28 -31 27 -31 -3z"/>
<path d="M1730 502 c0 -17 37 -42 63 -42 38 0 33 17 -9 35 -41 17 -54 19 -54
7z"/>
<path d="M7799 479 c-11 -8 -10 -12 5 -24 23 -17 62 -20 71 -4 9 14 4 18 -32
28 -18 5 -36 5 -44 0z"/>
<path d="M8152 463 c2 -17 10 -29 21 -31 15 -3 18 2 15 25 -2 17 -10 29 -21
31 -15 3 -18 -2 -15 -25z"/>
<path d="M8325 471 c-6 -20 3 -51 15 -51 19 0 31 29 20 49 -13 26 -27 27 -35
2z"/>
</g>
</svg>
